<mxfile host="app.diagrams.net" modified="2024-08-24T17:31:50.002Z" agent="Mozilla/5.0 (Windows NT 10.0; Win64; x64) AppleWebKit/537.36 (KHTML, like Gecko) Chrome/128.0.0.0 Safari/537.36 Edg/128.0.0.0" etag="e9wUyBXeyERrErq5Qfsu" version="24.2.8" type="device">
  <diagram id="prtHgNgQTEPvFCAcTncT" name="Page-1">
    <mxGraphModel dx="996" dy="663" grid="1" gridSize="10" guides="1" tooltips="1" connect="1" arrows="1" fold="1" page="1" pageScale="1" pageWidth="827" pageHeight="1169" background="#ffffff" math="0" shadow="0">
      <root>
        <mxCell id="0" />
        <mxCell id="1" parent="0" />
        <mxCell id="YWJMYqrkj8nO3_Yge7UJ-1" value="User Device" style="swimlane;whiteSpace=wrap;html=1;rounded=1;" vertex="1" parent="1">
          <mxGeometry x="50" y="70" width="310" height="300" as="geometry" />
        </mxCell>
        <mxCell id="YWJMYqrkj8nO3_Yge7UJ-5" style="edgeStyle=orthogonalEdgeStyle;rounded=0;orthogonalLoop=1;jettySize=auto;html=1;exitX=0.25;exitY=1;exitDx=0;exitDy=0;entryX=0.25;entryY=0;entryDx=0;entryDy=0;dashed=1;dashPattern=8 8;shadow=0;flowAnimation=1;" edge="1" parent="YWJMYqrkj8nO3_Yge7UJ-1" source="YWJMYqrkj8nO3_Yge7UJ-3" target="YWJMYqrkj8nO3_Yge7UJ-4">
          <mxGeometry relative="1" as="geometry" />
        </mxCell>
        <mxCell id="YWJMYqrkj8nO3_Yge7UJ-6" value="&lt;b&gt;(1)&lt;/b&gt; Authorization&lt;div&gt;Request&lt;/div&gt;" style="edgeLabel;html=1;align=center;verticalAlign=middle;resizable=0;points=[];" vertex="1" connectable="0" parent="YWJMYqrkj8nO3_Yge7UJ-5">
          <mxGeometry x="-0.1812" y="-1" relative="1" as="geometry">
            <mxPoint as="offset" />
          </mxGeometry>
        </mxCell>
        <mxCell id="YWJMYqrkj8nO3_Yge7UJ-3" value="Client App" style="rounded=1;whiteSpace=wrap;html=1;" vertex="1" parent="YWJMYqrkj8nO3_Yge7UJ-1">
          <mxGeometry x="20" y="40" width="270" height="60" as="geometry" />
        </mxCell>
        <mxCell id="YWJMYqrkj8nO3_Yge7UJ-7" style="edgeStyle=orthogonalEdgeStyle;rounded=0;orthogonalLoop=1;jettySize=auto;html=1;exitX=0.75;exitY=0;exitDx=0;exitDy=0;entryX=0.75;entryY=1;entryDx=0;entryDy=0;dashed=1;flowAnimation=1;dashPattern=8 8;" edge="1" parent="YWJMYqrkj8nO3_Yge7UJ-1" source="YWJMYqrkj8nO3_Yge7UJ-4" target="YWJMYqrkj8nO3_Yge7UJ-3">
          <mxGeometry relative="1" as="geometry" />
        </mxCell>
        <mxCell id="YWJMYqrkj8nO3_Yge7UJ-8" value="&lt;b&gt;(4)&lt;/b&gt; Authorization&lt;div&gt;Code&lt;/div&gt;" style="edgeLabel;html=1;align=center;verticalAlign=middle;resizable=0;points=[];labelBackgroundColor=default;" vertex="1" connectable="0" parent="YWJMYqrkj8nO3_Yge7UJ-7">
          <mxGeometry x="0.1341" y="-3" relative="1" as="geometry">
            <mxPoint x="-3" y="-4" as="offset" />
          </mxGeometry>
        </mxCell>
        <mxCell id="YWJMYqrkj8nO3_Yge7UJ-4" value="Browser" style="rounded=1;whiteSpace=wrap;html=1;" vertex="1" parent="YWJMYqrkj8nO3_Yge7UJ-1">
          <mxGeometry x="20" y="220" width="270" height="60" as="geometry" />
        </mxCell>
        <mxCell id="YWJMYqrkj8nO3_Yge7UJ-11" style="edgeStyle=orthogonalEdgeStyle;rounded=0;orthogonalLoop=1;jettySize=auto;html=1;exitX=0;exitY=0.75;exitDx=0;exitDy=0;entryX=1;entryY=0.75;entryDx=0;entryDy=0;dashed=1;dashPattern=8 8;flowAnimation=1;" edge="1" parent="1" source="YWJMYqrkj8nO3_Yge7UJ-9" target="YWJMYqrkj8nO3_Yge7UJ-3">
          <mxGeometry relative="1" as="geometry" />
        </mxCell>
        <mxCell id="YWJMYqrkj8nO3_Yge7UJ-13" value="&lt;b&gt;(6)&lt;/b&gt; Access Token,&lt;div&gt;Refresh Token&lt;/div&gt;" style="edgeLabel;html=1;align=center;verticalAlign=middle;resizable=0;points=[];" vertex="1" connectable="0" parent="YWJMYqrkj8nO3_Yge7UJ-11">
          <mxGeometry x="-0.0379" y="4" relative="1" as="geometry">
            <mxPoint y="21" as="offset" />
          </mxGeometry>
        </mxCell>
        <mxCell id="YWJMYqrkj8nO3_Yge7UJ-9" value="Token Endpoint" style="rounded=1;whiteSpace=wrap;html=1;" vertex="1" parent="1">
          <mxGeometry x="530" y="110" width="120" height="60" as="geometry" />
        </mxCell>
        <mxCell id="YWJMYqrkj8nO3_Yge7UJ-10" style="edgeStyle=orthogonalEdgeStyle;rounded=0;orthogonalLoop=1;jettySize=auto;html=1;exitX=1;exitY=0.25;exitDx=0;exitDy=0;entryX=0;entryY=0.25;entryDx=0;entryDy=0;dashed=1;dashPattern=8 8;flowAnimation=1;" edge="1" parent="1" source="YWJMYqrkj8nO3_Yge7UJ-3" target="YWJMYqrkj8nO3_Yge7UJ-9">
          <mxGeometry relative="1" as="geometry" />
        </mxCell>
        <mxCell id="YWJMYqrkj8nO3_Yge7UJ-12" value="&lt;b&gt;(5)&lt;/b&gt; Authorization Code" style="edgeLabel;html=1;align=center;verticalAlign=middle;resizable=0;points=[];" vertex="1" connectable="0" parent="YWJMYqrkj8nO3_Yge7UJ-10">
          <mxGeometry x="-0.1705" y="-2" relative="1" as="geometry">
            <mxPoint x="21" y="-17" as="offset" />
          </mxGeometry>
        </mxCell>
        <mxCell id="YWJMYqrkj8nO3_Yge7UJ-16" style="edgeStyle=orthogonalEdgeStyle;rounded=0;orthogonalLoop=1;jettySize=auto;html=1;exitX=0;exitY=0.75;exitDx=0;exitDy=0;entryX=1;entryY=0.75;entryDx=0;entryDy=0;dashed=1;dashPattern=8 8;flowAnimation=1;jumpStyle=arc;jumpSize=4;" edge="1" parent="1" source="YWJMYqrkj8nO3_Yge7UJ-14" target="YWJMYqrkj8nO3_Yge7UJ-4">
          <mxGeometry relative="1" as="geometry" />
        </mxCell>
        <mxCell id="YWJMYqrkj8nO3_Yge7UJ-17" value="&lt;b&gt;(3)&lt;/b&gt; Authorization Code" style="edgeLabel;html=1;align=center;verticalAlign=middle;resizable=0;points=[];" vertex="1" connectable="0" parent="YWJMYqrkj8nO3_Yge7UJ-16">
          <mxGeometry x="-0.1053" y="-2" relative="1" as="geometry">
            <mxPoint x="-5" y="17" as="offset" />
          </mxGeometry>
        </mxCell>
        <mxCell id="YWJMYqrkj8nO3_Yge7UJ-14" value="Authorization Endpoint" style="rounded=1;whiteSpace=wrap;html=1;" vertex="1" parent="1">
          <mxGeometry x="530" y="290" width="120" height="60" as="geometry" />
        </mxCell>
        <mxCell id="YWJMYqrkj8nO3_Yge7UJ-15" style="edgeStyle=orthogonalEdgeStyle;rounded=0;orthogonalLoop=1;jettySize=auto;html=1;exitX=1;exitY=0.25;exitDx=0;exitDy=0;entryX=0;entryY=0.25;entryDx=0;entryDy=0;dashed=1;flowAnimation=1;jumpStyle=arc;jumpSize=4;curved=0;strokeWidth=1;strokeColor=default;dashPattern=8 8;" edge="1" parent="1" source="YWJMYqrkj8nO3_Yge7UJ-4" target="YWJMYqrkj8nO3_Yge7UJ-14">
          <mxGeometry relative="1" as="geometry" />
        </mxCell>
        <mxCell id="YWJMYqrkj8nO3_Yge7UJ-18" value="&lt;b&gt;(2)&lt;/b&gt; Authorization Request" style="edgeLabel;html=1;align=center;verticalAlign=middle;resizable=0;points=[];" vertex="1" connectable="0" parent="YWJMYqrkj8nO3_Yge7UJ-15">
          <mxGeometry x="-0.1263" y="1" relative="1" as="geometry">
            <mxPoint x="17" y="-14" as="offset" />
          </mxGeometry>
        </mxCell>
      </root>
    </mxGraphModel>
  </diagram>
</mxfile>
